<svg width="16" height="16" viewBox="0 0 16 16" fill="none" xmlns="http://www.w3.org/2000/svg">
<path fill-rule="evenodd" clip-rule="evenodd" d="M8.70727 2.62627C8.31675 2.23574 7.68358 2.23574 7.29306 2.62627C6.90253 3.01679 6.90253 3.64996 7.29306 4.04048L10.2526 7.00004H3.3335C2.78121 7.00004 2.3335 7.44776 2.3335 8.00004C2.3335 8.55233 2.78121 9.00004 3.3335 9.00004H10.2526L7.29306 11.9596C6.90253 12.3501 6.90253 12.9833 7.29306 13.3738C7.68358 13.7643 8.31675 13.7643 8.70727 13.3738L13.3736 8.70748L13.3739 8.70715M13.591 7.61726C13.5422 7.49931 13.4698 7.38881 13.3739 7.29293L8.70727 2.62627M13.3761 8.70502C13.5558 8.52423 13.6668 8.2751 13.6668 8.00004C13.6668 7.86445 13.6398 7.73516 13.591 7.61726" fill="#22A75D"/>
</svg>
